<?xml version="1.0" encoding="utf-8"?>
<svg viewBox="138.1121 -24.4829 127.555 127.555" xmlns="http://www.w3.org/2000/svg">
  <rect x="-139.519" y="-101.582" width="94.874" height="55.965" style="stroke: rgb(0, 0, 0); stroke-width: 0px; fill: rgb(0, 0, 0);" transform="matrix(1, 0, 0, 1, 303.0330810546875, 140.07705688476562)"/>
  <path d="M -164.921 -164.56 L -164.921 -37.005 L -37.366 -37.005 L -37.366 -164.56 L -86.55 -164.56 C -86.536 -164.333 -86.514 -164.105 -86.514 -163.874 C -86.514 -155.794 -93.064 -149.248 -101.144 -149.248 C -109.222 -149.248 -115.769 -155.794 -115.769 -163.874 C -115.769 -164.105 -115.747 -164.333 -115.738 -164.56 L -164.921 -164.56 Z M -135.326 -95.814 L -126.881 -95.814 L -121.099 -65.076 L -120.992 -65.076 L -114.024 -95.814 L -106.116 -95.814 L -99.851 -64.695 L -99.745 -64.695 L -93.148 -95.814 L -84.864 -95.814 L -95.629 -50.658 L -104.024 -50.658 L -110.237 -81.396 L -110.344 -81.396 L -117.044 -50.658 L -125.601 -50.658 L -135.326 -95.814 Z M -75.332 -95.814 L -61.998 -95.814 L -48.714 -50.658 L -57.484 -50.658 L -60.363 -60.709 L -75.554 -60.709 L -77.766 -50.659 L -86.266 -50.659 L -75.332 -95.814 Z M -70.249 -84.682 L -73.933 -68.112 L -62.46 -68.112 L -66.696 -84.682 L -70.249 -84.682 Z" style="fill: rgb(0, 0, 0);" transform="matrix(1, 0, 0, 1, 303.0330810546875, 140.07705688476562)"/>
  <path d="M -146.234 -61.812 L -148.538 -52.212 L -159.546 -52.212 L -145.978 -96.564 L -133.242 -96.564 L -119.674 -52.212 L -130.938 -52.212 L -133.242 -61.812 L -146.234 -61.812 Z M -134.97 -69.364 L -139.77 -89.012 L -144.57 -69.364 L -134.97 -69.364 Z M -84.097 -65.204 C -84.097 -62.431 -84.823 -59.978 -86.273 -57.844 C -87.724 -55.711 -89.804 -54.058 -92.513 -52.884 C -95.223 -51.711 -98.433 -51.124 -102.145 -51.124 C -109.484 -51.124 -115.329 -53.258 -119.681 -57.524 L -114.369 -63.412 C -110.999 -60.426 -107.009 -58.932 -102.401 -58.932 C -100.183 -58.932 -98.401 -59.412 -97.057 -60.372 C -95.713 -61.332 -95.041 -62.666 -95.041 -64.372 C -95.041 -65.994 -95.607 -67.263 -96.737 -68.18 C -97.868 -69.098 -99.969 -70.026 -103.041 -70.964 C -108.247 -72.543 -111.937 -74.399 -114.113 -76.532 C -116.289 -78.666 -117.377 -81.418 -117.377 -84.788 C -117.377 -87.434 -116.641 -89.738 -115.169 -91.7 C -113.697 -93.663 -111.692 -95.156 -109.153 -96.18 C -106.615 -97.204 -103.788 -97.716 -100.673 -97.716 C -94.145 -97.716 -88.855 -95.796 -84.801 -91.956 L -89.729 -86.26 C -91.223 -87.498 -92.833 -88.426 -94.561 -89.044 C -96.289 -89.663 -98.071 -89.972 -99.905 -89.972 C -101.953 -89.972 -103.564 -89.599 -104.737 -88.852 C -105.911 -88.106 -106.497 -87.028 -106.497 -85.62 C -106.497 -84.682 -106.231 -83.892 -105.697 -83.252 C -105.164 -82.612 -104.279 -82.015 -103.041 -81.46 C -101.804 -80.906 -99.948 -80.244 -97.473 -79.476 C -92.951 -78.111 -89.591 -76.351 -87.393 -74.196 C -85.196 -72.042 -84.097 -69.044 -84.097 -65.204 Z M -44.744 -52.212 L -53.96 -52.212 L -54.472 -71.22 C -54.515 -72.159 -54.536 -73.439 -54.536 -75.06 C -54.536 -77.194 -54.472 -79.274 -54.344 -81.3 C -54.216 -83.327 -54.067 -85.45 -53.896 -87.668 L -58.888 -59.764 L -66.824 -59.764 L -72.264 -87.668 C -71.795 -82.762 -71.56 -78.346 -71.56 -74.42 L -71.624 -71.028 L -71.944 -52.212 L -80.968 -52.212 L -78.472 -96.564 L -67.656 -96.564 L -62.728 -67.892 L -58.056 -96.564 L -47.24 -96.564 L -44.744 -52.212 Z" style="fill: rgb(0, 255, 0);" transform="matrix(1, 0, 0, 1, 303.0330810546875, 140.07705688476562)"/>
</svg>
