<?xml version="1.0" encoding="utf-8"?>
<svg viewBox="124.567 46.802 119.53 119.53" xmlns="http://www.w3.org/2000/svg">
  <path style="stroke: rgb(0, 0, 0); stroke-width: 0px; fill: rgb(255, 255, 255);" d="M 180.901 47.9 L 136.764 74.731 L 133.154 80.645 L 132.822 129.981 L 135.612 138.07 L 181.004 165.054 L 188.404 164.504 L 232.54 138.07 L 235.234 131.867 L 235.51 81.156 L 231.656 73.936 L 208.679 60.241 L 188.761 48.233 L 180.901 47.9 Z"/>
  <path fill="none" d="M 124.567 46.802 L 244.097 46.802 L 244.097 166.332 L 124.567 166.332 L 124.567 46.802 Z"/>
  <path fill="#293138" d="M 229.337 71.202 L 191.607 48.802 C 189.357 47.472 186.837 46.802 184.327 46.802 C 181.817 46.802 179.297 47.472 177.047 48.812 L 139.307 71.212 C 134.807 73.882 132.027 78.822 132.027 84.172 L 132.027 128.972 C 132.027 134.322 134.797 139.262 139.307 141.932 L 177.037 164.332 C 179.287 165.672 181.797 166.332 184.317 166.332 C 186.827 166.332 189.347 165.662 191.597 164.332 L 229.337 141.932 C 233.837 139.262 236.617 134.312 236.617 128.972 L 236.617 84.162 C 236.617 78.822 233.847 73.872 229.337 71.202 L 229.337 71.202 Z M 200.117 141.152 L 200.177 144.372 C 200.177 144.762 199.927 145.202 199.627 145.362 L 197.717 146.462 C 197.417 146.612 197.157 146.432 197.157 146.042 L 197.127 142.872 C 195.497 143.552 193.837 143.712 192.787 143.292 C 192.587 143.212 192.497 142.922 192.577 142.582 L 193.267 139.672 C 193.327 139.442 193.447 139.212 193.607 139.072 C 193.667 139.012 193.727 138.972 193.787 138.942 C 193.897 138.882 194.007 138.872 194.097 138.912 C 195.237 139.292 196.687 139.112 198.087 138.412 C 199.867 137.512 201.057 135.692 201.037 133.892 C 201.017 132.252 200.137 131.582 197.987 131.562 C 195.247 131.572 192.687 131.032 192.647 126.992 C 192.617 123.672 194.337 120.212 197.077 118.032 L 197.047 114.782 C 197.047 114.382 197.287 113.942 197.597 113.782 L 199.447 112.602 C 199.747 112.452 200.007 112.642 200.007 113.032 L 200.037 116.282 C 201.397 115.742 202.577 115.592 203.647 115.842 C 203.877 115.902 203.987 116.222 203.887 116.592 L 203.167 119.472 C 203.107 119.692 202.987 119.912 202.837 120.052 C 202.781 120.108 202.717 120.155 202.647 120.192 C 202.547 120.242 202.457 120.252 202.367 120.242 C 201.877 120.132 200.717 119.882 198.887 120.802 C 196.967 121.772 196.297 123.442 196.307 124.682 C 196.327 126.162 197.077 126.612 199.697 126.652 C 203.187 126.712 204.687 128.232 204.727 131.742 C 204.777 135.182 202.937 138.892 200.117 141.152 L 200.117 141.152 Z M 226.457 80.652 L 190.757 102.702 C 186.307 105.302 183.027 108.222 183.017 113.592 L 183.017 157.582 C 183.017 160.792 184.317 162.872 186.307 163.482 C 185.657 163.592 184.987 163.672 184.327 163.672 C 182.237 163.672 180.177 163.102 178.367 162.032 L 140.637 139.632 C 136.947 137.442 134.657 133.352 134.657 128.962 L 134.657 84.162 C 134.657 79.772 136.947 75.682 140.637 73.492 L 178.377 51.092 C 180.187 50.022 182.247 49.452 184.337 49.452 C 186.427 49.452 188.487 50.022 190.297 51.092 L 228.037 73.492 C 231.147 75.342 233.247 78.532 233.837 82.122 C 232.567 79.452 229.747 78.732 226.457 80.652 Z"/>
  <path fill="#4FA847" d="M 219.447 133.292 L 210.047 138.912 C 209.797 139.062 209.617 139.222 209.617 139.522 L 209.617 141.982 C 209.617 142.282 209.817 142.412 210.067 142.262 L 219.607 136.462 C 219.857 136.312 219.897 136.042 219.897 135.742 L 219.897 133.572 C 219.897 133.272 219.697 133.152 219.447 133.292 Z"/>
</svg>
