<?xml version="1.0" encoding="utf-8"?>
<svg viewBox="341.4992 44.9136 24.0003 23.9533" xmlns="http://www.w3.org/2000/svg">
  <path style="stroke: rgb(0, 0, 0); stroke-width: 0px; fill: rgb(255, 255, 255);" d="M 211.314 -82.956 L 224.453 -86.93 L 220.67 -72.838 L 211.314 -82.956 Z" transform="matrix(1, 0, 0, 1, 130.48931884765622, 136.75123596191406)"/>
  <path d="M 234.974 -76.595 L 226.287 -67.926 C 226.253 -67.891 226.201 -67.874 226.166 -67.891 L 214.3 -71.071 C 214.248 -71.088 214.213 -71.123 214.213 -71.157 L 211.017 -83.005 C 210.999 -83.058 211.017 -83.092 211.052 -83.127 L 219.738 -91.796 C 219.773 -91.831 219.825 -91.848 219.859 -91.831 L 231.725 -88.651 C 231.777 -88.634 231.812 -88.599 231.812 -88.565 L 234.992 -76.717 C 235.026 -76.664 235.008 -76.63 234.974 -76.595 Z M 223.334 -86.028 L 211.677 -82.918 C 211.66 -82.918 211.642 -82.884 211.66 -82.866 L 220.19 -74.354 C 220.207 -74.337 220.242 -74.337 220.242 -74.371 L 223.369 -86.011 C 223.386 -86.011 223.351 -86.046 223.334 -86.028 L 223.334 -86.028 Z" style="fill: rgb(0, 0, 0);" transform="matrix(1, 0, 0, 1, 130.48931884765622, 136.75123596191406)"/>
</svg>
