<svg xmlns="http://www.w3.org/2000/svg" xmlns:v="https://vecta.io/nano" viewBox="0 0 1063.25 1063.21"><path d="M545.08 1063.12h-1.77c-2.14-.96-4.4-.2-6.58-.44h-9.13c-2.74.24-5.54-.5-8.24.44h-2.66c-6.26-1.11-12.63-.66-18.91-.75-40.68-.59-80.04-8.8-118.87-20.07-33.89-9.84-66.37-23.28-97.51-39.85-34.82-18.53-67.26-40.61-97.18-66.38-8.63-7.43-16.76-15.37-25.17-23.03-1.33-1.21-2.49-2.55-2.5-4.51.25-2.25 1.91-3.59 3.34-5.06l106.7-107.61c2.6-2.6 5.79-4.62 7.74-7.86 5.3-4.9 12.14-7.24 18.29-10.7 6.17-3.47 12.31-7.08 18.8-9.95 3.36-1.48 3.56-3.22 1.59-6.08-1.64-2.39-3.56-4.81-3.18-8.07 1.93-3.84 4.05-7.47 9.14-7.43 2.33 1.04 3.37 3.24 4.59 5.23 9.18 14.91 20.06 28.5 31.86 41.4 1.3 1.42 2.68 2.75 4.07 4.08 6.19 5.92 6.14 5.86 12.47.51 12.16-10.29 26.8-14.75 42.08-17.5 11.06-1.99 22.25-2.58 33.49-3.04 28.48-1.17 56.53 2.69 84.64 6.12 2.05.25 4.12.35 6.18.59.44.05.89.05 1.6-.71-1.54-4.16-3.58-8.39-5.6-12.59l-43.63-91.69c-2.84-6.04-2.83-6.01-9.38-4.78-5.08.96-10.12 2.15-15.23 2.96-5.1.81-6.8-.12-7.92-5.21l-9.15-43.37c-.94-4.35.88-7.36 4.29-9.86 7.99-5.87 16.34-11.2 24.5-16.8l110.18-75.35 126.2-86.47c4.51-3.12 4.43-3.1.32-6.81-13.65-12.32-28.48-23.05-44.08-32.74-1.74-1.08-3.67-2-4.47-4.12-.31-3.51 2.63-5.02 4.45-7.21 1.23-1.48 2.94-2.45 4.14-3.96l122.05-102.71 68.46-57.67c4.24-3.59 4.21-3.6-.23-6.9-2.97-2.2-6.09-4.18-9.14-6.26-1.45-.99-3.08-1.84-3.51-3.79-.07-2.34 1.54-3.75 2.98-5.2l45.06-45.05c1.77-1.76 3.57-3.63 6.48-3.11 3.26 1.08 5.27 3.75 7.46 6.1 20.47 21.96 39.8 44.83 56.81 69.63 16.68 24.32 31.22 49.83 43.74 76.5 14.74 31.39 26.08 64.01 34.38 97.68 5.45 22.11 9.55 44.49 11.91 67.12 1.57 15.1 1.69 30.34 1.65 45.55v6.82 15.92c.24 2.27-.51 4.61.44 6.83v.89c-1.09 5.96-.66 12.03-.75 18.01-.61 40.66-8.77 80.01-20.06 118.82-9.44 32.43-22.16 63.59-37.79 93.53-17.77 34.04-38.99 65.78-63.53 95.33-10.2 12.28-20.87 24.17-32.17 35.38-17.3 17.15-35.56 33.27-55.02 48.03-40.54 30.74-84.49 55.31-131.96 73.52-36.67 14.07-74.49 23.81-113.39 29.43-14.35 2.07-28.72 2.95-43.18 3.5-6.74.26-13.52-.34-20.23.75z" fill="#9e061a"/><path d="M1062.43 539.76v-16.94c.28-.46.52-.42.74.05v16.86c-.22.49-.46.5-.73.04z" fill="#e08a93"/><path d="M527.3 1062.38h9.82c.34.18.45.35.32.51-.12.15-.24.23-.36.23h-9.76c-.36-.15-.48-.31-.37-.48s.23-.26.34-.26z" fill="#dd7f89"/><path d="M527.3 1062.38l.03.74h-7.98c2.5-1.85 5.3-.56 7.96-.74z" fill="#e498a0"/><path d="M1063.16 522.87l-.37-.06-.37.01-.02-7.1a1.46 1.46 0 0 1 .75.05v7.1z" fill="#ecb5bb"/><path d="M1062.43,539.76c.25.03.49.01.73-.04v6.21c-1.84-1.87-.5-4.11-.73-6.17Z" fill="#eab0b6"/><path d="M537.09,1063.12c0-.25.02-.49.04-.74,2.06.2,4.31-1.1,6.17.74h-6.21Z" fill="#e69ea6"/><path d="M157.15 908.11c-14.12-13.29-26.89-27.83-39.05-42.9-54.39-67.43-90.34-143.6-107.66-228.48-9.32-45.71-12.26-91.91-9.38-138.48 5.65-91.2 32.92-175.45 82.06-252.41 50.36-78.86 117.09-140.27 199.72-184.3 44.97-23.96 92.49-40.89 142.41-51.02 45.86-9.3 92.17-12.33 138.89-9.5 72.91 4.41 141.92 23.14 207.07 56.08 47.27 23.9 89.95 54.32 128.14 91.03l6.62 6.46c-.76.42-1.67.7-2.26 1.29L852.97 207c-2.66 1.37-4.54-.55-6.44-1.72-13.97-8.64-28.51-16.19-43.27-23.36-22.93-11.14-46.85-19.59-71.33-26.6-3.95-1.13-5.75.72-7.6 3.42l-28.68 41.6L595.63 345.1c-5.59 8.06-3.93 6.64 2.84 8.14 26.34 5.84 50.96 16.02 74.28 29.45 1.15.66 2.39 1.23 2.84 2.64l-9.02 9.78c-2.93 1.32-5.16-.55-7.4-1.8-21.95-12.24-45.1-21.35-69.64-26.82-13.27-2.96-26.69-4.54-40.32-5.2-37.63-1.81-73.38 5.92-107.76 20.53-24.21 10.29-46.3 24.18-66.22 41.45-25.65 22.24-46.39 48.35-61.89 78.53-13.34 25.98-21.78 53.55-25.56 82.53-1.54 11.86-2.97 23.76-2.56 35.72 1.26 36.4 8.55 71.43 24.26 104.51 2.6 5.47 5.4 10.83 8.14 16.23.84 1.66 2.01 3.38.9 5.42-3.2 1.91-5.46 4.8-7.89 7.52-2.39.08-3.23-1.8-4.17-3.43-2.51-4.34-4.9-8.75-7.17-13.23-2.98-5.89-3.71-6.22-10.03-4.74l-74.89 17.87-13.79 3.21c-2.76.71-3.6 1.97-2.49 4.77 7.05 17.88 15.33 35.16 24.59 51.99 1.69 3.08 3.6 2.31 5.83 1.13l33.19-17.71c2.86-1.54 5.69-3.13 8.65-4.47 1.59-.72 3.22-1.61 5.04-.57-.6 1.96-2.28 3.05-3.61 4.38l-74.71 74.99-35.69 36.31c-1.34 1.36-2.83 2.58-4.25 3.86z" fill="#f22232"/><path d="M318.54 746.23c-16.67-28.99-27.57-60.04-32.27-93.14-7.78-54.84 1.28-107.05 27.51-155.67 36.07-66.87 91.26-110.58 164.74-130.2 63.83-17.04 124.4-7.17 181.81 24.61 2.06 1.14 4.16 2.19 6.24 3.28 15.27 9.56 30.18 19.62 43.88 31.36 3.69 3.17 7.28 6.47 11.19 9.95l-33.12 22.71-232.83 159.3c-5.85 4-5.99 4.42-4.52 11.33l8.71 41.58c.71 3.62 1.94 4.43 5.58 3.5 6.71-1.71 13.61-2.65 20.38-4.14 2.06-.45 3.14-.31 4.13 1.77l52.99 111.43c.18.37.16.84.31 1.67l-26.4-3.2c-29.38-3.59-58.79-6.12-88.4-3.12-16.24 1.65-32.12 4.76-46.61 12.78-5.08 2.81-9.7 6.33-13.15 11.03-1.89 2.57-2.89 1.73-4.68.04-17.36-16.27-32.12-34.62-44.28-55.06-.38-.63-.82-1.23-1.23-1.84zm434.07-317.57l10.63 65.71 15.54 96.2c1.11 6.8 1.11 7.02-5.37 8.28l-233.78 45.67-64.25 12.87c-5.82 1.17-5.83 1.21-7.41-4.52-1.69-6.11-3.07-12.33-5.14-18.31-1.62-4.68-.13-7.19 3.76-9.82l66.55-45.54 215.17-147.66 4.29-2.89zm-77.02-43.32c-2.39-.34-4.44-1.5-6.51-2.66-25.11-14.17-51.64-24.51-80.15-29.58-.2-1.91 1.25-2.97 2.12-4.24l133.03-192.88c2.18-3.16 4.03-3.55 7.52-2.58 42.08 11.66 81.62 29.06 118.65 52.19.86.54 1.8.95 2.71 1.42 5.34 3.66 10.61 7.44 16.07 10.93 2.7 1.73 2.94 2.76.32 4.95l-68.84 57.83-120.63 101.52c-1.35 1.13-2.86 2.07-4.29 3.1zm34.55 520.96c-1.06 9.98-5.39 18.25-11.88 25.4-12.83 14.12-28.73 23.93-45.78 32.04-2.79 1.33-5.74 2.34-8.48 3.76-3.75 1.95-5.86.87-7.57-2.9l-28.42-61.89-99.94-216.41c-2.23-4.83-2.24-4.86 2.78-5.86l19.54-3.88c3.53-.79 6.06.05 8.65 2.68 18.95 19.28 37.54 38.98 58.94 55.66 20.8 16.22 40.52 33.53 56.6 54.63 25.91 33.99 44.64 71.44 54.77 113.06.31 1.28.57 2.58.81 3.72zm-378.85 4.22l39.29-92.15c2.8-6.53 7.92-10.89 14.12-14.13 13.09-6.82 27.34-9.01 41.74-10.81 23.85-2.98 47.5-.41 71.16 2.18l36.56 3.99c5.01.43 7.86 2.36 9.94 7.04l25.58 55.91c1.45 3.12 1.33 5.65-.39 8.69l-23.13 41.83c-1.4 2.59-2.88 3.12-5.57 2.62-35.58-6.65-71.29-12.32-107.48-14.56-30.05-1.86-59.96-1.85-89.37 5.85-3.96 1.04-7.89 2.24-12.45 3.54zm-55.88-121.96l-48.05 25.51c-3.03 1.65-4.03 1.07-5.57-1.73a483.84 483.84 0 0 1-26.2-55.58c-.94-2.38-1.52-3.64 2.01-4.46l94.22-22.53c3.57-.86 5.8.21 7.56 3.48 3.69 6.87 6.86 14.03 11.27 20.5 1.61 2.78 3 5.73 4.9 8.31 2.02 2.73 1.9 4.02-1.37 5.72-13.02 6.74-25.86 13.82-38.76 20.78zm183.57-428.15l20.85-77.6 35.13-130.78c.64-2.39 1.63-3.69 4.17-4.23 43.51-9.27 87.42-12.26 131.77-8.47l15.01 1.34c3.13.21 3.56 1.11 2.01 3.96l-39.32 72.86-67.36 125.64c-2.28 4.29-4.89 5.77-9.77 5.46-29.79-1.9-58.95 1.95-87.52 10.46-1.39.42-2.81.77-4.96 1.36zm-106.3 63.45l-8.2-100.39-7.34-85.24c-.23-2.57.12-4.36 2.34-6.08 39.81-30.81 83.4-54.57 131.09-70.76.81-.28 1.68-.42 3.22-.79l-4.46 26.92-26.32 150.97-4.34 25.77c-.38 2.43-1.38 4.09-3.67 5.06-30.31 12.79-56.77 31.36-80.73 53.69-.29.27-.72.39-1.59.85zm-49.81-158.92l12.92 57.31 24.7 109.67c.62 2.72.35 4.9-1.43 6.99-16.34 19.22-29.9 40.26-41.11 62.84-.06.11-.23.17-.7.49-.67-1.19-1.38-2.35-1.98-3.57l-66.25-133.12c-1.77-3.53-1.62-6.08.45-9.3 21.01-32.64 44.29-63.46 72.17-90.62.2-.19.5-.28 1.23-.69zm-26.79 308.93l-32.12-28.3-63.15-55.76c-3.19-2.79-4.03-5.37-2.94-9.56 6.56-25.02 14.72-49.47 25.24-73.11.65-1.46 1.39-2.89 2.38-4.92l13.22 17.54 68.57 91.51c3.1 4.11 3.67 7.68 1.78 12.58-6.14 15.86-10.35 32.3-12.97 50.02zm-106.9-48.62l47.26 29.25 52.04 32.08c3.88 2.35 5.49 5.09 5.18 9.71-1.22 18.17-1.07 36.35 1.16 54.46.5 4.09-1.53 2.4-3.21 1.82l-65.25-22.53-37.66-12.95c-2.75-.9-3.63-2.2-3.76-4.96-1.37-28.88.07-57.61 4.24-86.88zm66.51 189.54c-16.7 0-33.41-.09-50.11.08-3.05.03-4.35-.72-5.16-3.76-4.79-18-8.54-36.2-11.31-54.61-.83-5.52-.78-5.54 5.04-4.33l98.86 20.47c4.16.85 6.35 2.6 7.32 6.9 2.25 10.08 5.67 19.85 8.94 29.64 1.67 5 1.65 5.01-3.46 5.01h-50.12v.59z" fill="#fefefe"/><path d="M340.92 722.67c-9.43-18.81-16.03-38.63-20.76-59.07-12.17-52.68-6.19-102.97 20.62-150.29 19.04-33.61 45.51-60.55 76.3-83.45 14.58-10.85 29.8-20.71 46.21-28.64 1.02-.45 1.12.12 1.02.92-22.81 14.94-44.02 31.84-63.17 51.3-29.49 29.96-52.13 64.21-63.34 105.03-12.86 46.81-7.74 92.43 11.47 136.71l6.13 13.71c-3.35 6.15-7.37 11.6-14.48 13.8z" fill="#f22232"/><path d="M340.92 722.67l14.48-13.8 21.24 36.64c1.07 1.83 1.42 2.92-.96 4-4.42 2-8.69 4.34-13.04 6.5-2.27 1.12-4.24 1.02-5.61-1.49-5.69-10.45-11.73-20.73-16.11-31.85z" fill="#9e061a"/><path d="M464.31 402.14l-1.02-.92c1.97-1.7 4.37-2.49 7.2-2.67l-6.18 3.59z" fill="#f44a57"/><path d="M474.08 806.64c-22.57-.15-44.13 5.24-65.52 11.73-3.86 1.17-6.73 3.21-9.07 6.54l-33.74 47.2c-.93 1.3-1.91 2.56-2.97 3.98-1-1.75.27-2.77.77-3.82l25.58-53.45c1.57-3.29 3.76-5.29 7.4-6.26 23.25-6.19 46.7-10.3 70.89-7.62 2.2.24 4.38.67 6.56 1 .3.11.42.25.35.42-.07.18-.16.27-.24.27z" fill="#9f061a"/><path d="M474.08 806.64l-.1-.69c1.3.17 2.89-.67 3.82 1.13-1.4.97-2.59.6-3.71-.43z" fill="#e3bbc0"/></svg>
