<?xml version="1.0" encoding="utf-8"?>
<svg viewBox="379.9998 119.9999 126 126" xmlns="http://www.w3.org/2000/svg">
  <rect x="252.693" y="12.16" width="126" height="79.6" style="stroke: rgb(0, 0, 0); stroke-width: 0px; fill: rgb(255, 255, 255);" transform="matrix(0.9999999999999999, 0, 0, 0.9999999999999999, 127.30679321289062, 131.28689575195312)"/>
  <path d="M 272.393 91.913 C 262.693 81.513 256.893 67.213 256.993 50.113 C 256.893 35.013 261.693 22.013 269.893 12.113 L 252.693 12.113 L 252.693 91.813 L 272.393 91.913 Z M 362.793 91.913 C 366.993 87.413 370.793 82.113 374.193 76.013 L 355.193 66.513 C 348.493 77.313 338.793 87.313 325.293 87.413 C 305.693 87.313 297.993 70.513 297.993 48.913 L 371.293 48.913 C 371.393 46.513 371.393 45.313 371.293 44.213 C 371.793 31.313 368.393 20.513 362.193 12.113 L 378.693 12.113 L 378.693 91.813 L 362.793 91.913 Z M 299.193 30.413 C 299.993 20.613 307.693 14.113 316.793 14.013 C 325.893 14.013 332.493 20.613 332.693 30.413 L 299.193 30.413 Z" fill="#A90533" transform="matrix(0.9999999999999999, 0, 0, 0.9999999999999999, 127.30679321289062, 131.28689575195312)"/>
</svg>
