<?xml version="1.0" encoding="utf-8"?>
<svg viewBox="15.41 260.499 128.02 128.016" xmlns="http://www.w3.org/2000/svg">
  <rect x="23.865" y="270.317" width="112.477" height="109.289" style="stroke: rgb(0, 0, 0); stroke-width: 0px; fill: rgb(255, 255, 255);"/>
  <path style="fill:#734c94;fill-opacity:1;fill-rule:nonzero;stroke:none" d="M 34.379 260.499 C 28.66 260.499 15.41 271.499 15.41 279.159 L 15.41 369.612 C 15.41 375.304 26.62 388.515 34.191 388.515 L 124.742 388.483 C 131.48 388.479 143.43 378.8 143.43 369.882 L 143.43 279.339 C 143.43 273.261 132.82 260.507 125 260.507 L 34.379 260.499 Z M 32.984 274.159 L 126.351 274.159 L 126.351 315.87 L 115.359 315.706 C 115.258 315.608 114.957 312.659 114.754 309.948 C 113.6 297.199 110.738 289.862 105.219 286.999 C 102.305 285.495 97.762 285.049 83.199 285.046 L 69.629 285.05 L 69.629 316.323 L 72.039 316.323 C 76.105 316.273 81.273 315.319 82.98 314.265 C 85.191 312.909 87.047 308.995 87.7 304.276 C 88.191 300.831 88.57 298.253 88.57 298.253 L 99.246 298.253 L 99.246 347.944 L 88.203 347.944 L 88.203 345.987 C 88.203 342.777 86.695 335.296 85.64 333.038 C 83.984 329.573 81.176 328.37 73.191 327.616 L 69.527 327.265 L 69.73 343.378 C 69.879 358.686 69.98 359.542 70.933 360.847 C 72.14 362.452 73.445 362.753 81.426 363.354 L 86.781 363.612 L 86.746 374.55 L 32.984 374.55 L 32.984 363.608 L 37.906 363.304 C 47.894 362.651 47.793 362.702 48.296 354.874 C 48.746 347.444 48.18 289.276 47.844 288.112 C 47.293 286.19 45.226 285.085 39.058 285.089 L 32.984 285.049 L 32.984 274.159 Z"/>
</svg>
