<?xml version="1.0" encoding="utf-8"?>
<svg viewBox="328 332 127.996 127.9" xmlns="http://www.w3.org/2000/svg">
  <defs>
    <linearGradient id="gradient-1" gradientUnits="userSpaceOnUse" x1="82.925" y1="97.718" x2="82.925" y2="97.9" gradientTransform="matrix(0.77317, 0, 0, 0.77317, 327.991882, 332.001862)">
      <stop offset="0" stop-color="#F29100"/>
      <stop offset="1" stop-color="#EC670F"/>
    </linearGradient>
    <linearGradient id="ocaml-original-b" gradientUnits="userSpaceOnUse" x1="61.276" y1="98.981" x2="61.276" y2="144.277" gradientTransform="matrix(0.77317, 0, 0, 0.77317, 327.991882, 332.001862)">
      <stop offset="0" stop-color="#F29100"/>
      <stop offset="1" stop-color="#EC670F"/>
    </linearGradient>
    <linearGradient id="ocaml-original-c" gradientUnits="userSpaceOnUse" x1="82.781" y1="0" x2="82.781" y2="144.245" gradientTransform="matrix(0.77317, 0, 0, 0.77317, 327.991882, 332.001862)">
      <stop offset="0" stop-color="#F29100"/>
      <stop offset="1" stop-color="#EC670F"/>
    </linearGradient>
    <linearGradient id="ocaml-original-d" gradientUnits="userSpaceOnUse" x1="22.871" y1="92.114" x2="22.871" y2="143.249" gradientTransform="matrix(0.77317, 0, 0, 0.77317, 327.991882, 332.001862)">
      <stop offset="0" stop-color="#F29100"/>
      <stop offset="1" stop-color="#EC670F"/>
    </linearGradient>
  </defs>
  <rect style="stroke: rgb(0, 0, 0); stroke-width: 0px; fill: rgb(255, 255, 255);" x="328.1" y="332.1" width="127.8" height="127.8" rx="16" ry="16" transform="matrix(0.9999999999999999, 0, 0, 0.9999999999999999, 0, 0)"/>
  <path d="M 392.102 407.696 L 392.121 407.649 C 392.094 407.532 392.086 407.501 392.101 407.696 L 392.102 407.696 Z M 392.102 407.696" fill="#484444" transform="matrix(0.9999999999999999, 0, 0, 0.9999999999999999, 0, 0)"/>
  <path d="M 392.102 407.696 L 392.121 407.649 C 392.094 407.532 392.086 407.501 392.101 407.696 L 392.102 407.696 Z M 392.102 407.696" fill="url(#gradient-1)" transform="matrix(0.9999999999999999, 0, 0, 0.9999999999999999, 0, 0)"/>
  <path d="M 392.961 439.219 C 392.511 438.282 391.945 436.446 391.571 435.637 C 391.215 434.883 390.137 432.915 389.597 432.282 C 388.422 430.907 388.144 430.805 387.801 429.067 C 387.199 426.044 385.609 420.559 383.734 416.774 C 382.765 414.821 381.156 413.18 379.684 411.762 C 378.398 410.52 375.5 408.43 374.992 408.536 C 370.258 409.481 368.789 414.126 366.558 417.806 C 365.328 419.84 364.023 421.571 363.051 423.735 C 362.152 425.727 362.234 427.93 360.699 429.637 C 359.121 431.395 358.097 433.262 357.328 435.528 C 357.18 435.958 356.765 440.481 356.312 441.555 L 363.352 441.059 C 369.91 441.509 368.015 444.024 378.254 443.473 L 394.418 442.973 C 393.914 441.493 393.222 439.778 392.957 439.219 L 392.961 439.219 Z M 392.961 439.219" fill="url(#ocaml-original-b)" transform="matrix(0.9999999999999999, 0, 0, 0.9999999999999999, 0, 0)"/>
  <path d="M 439.867 332.001 L 344.125 332.001 C 335.219 332.005 328 339.223 328 348.13 L 328 383.313 C 330.308 382.477 333.625 377.571 334.664 376.376 C 336.484 374.29 336.812 371.626 337.719 369.95 C 339.785 366.13 340.14 363.505 344.828 363.505 C 347.015 363.505 347.883 364.008 349.363 365.993 C 350.39 367.372 352.172 369.923 353 371.626 C 353.96 373.594 355.527 376.255 356.215 376.79 C 356.726 377.192 357.23 377.489 357.703 377.665 C 358.461 377.954 359.093 377.43 359.601 377.025 C 360.25 376.505 360.531 375.454 361.133 374.048 C 362 372.02 362.941 369.59 363.48 368.738 C 364.41 367.274 364.726 365.536 365.73 364.692 C 367.215 363.45 369.144 363.364 369.68 363.258 C 372.656 362.668 374.008 364.692 375.472 366.001 C 376.433 366.856 377.742 368.583 378.676 370.891 C 379.402 372.7 380.328 374.371 380.715 375.415 C 381.09 376.419 382.015 378.035 382.562 379.965 C 383.058 381.723 384.39 383.071 384.894 383.903 C 384.894 383.903 385.668 386.071 390.374 388.055 C 391.394 388.485 393.457 389.185 394.687 389.63 C 396.734 390.376 398.715 390.278 401.238 389.977 C 403.035 389.977 404.012 387.372 404.828 385.286 C 405.312 384.056 405.773 380.52 406.09 379.52 C 406.394 378.544 405.68 377.79 406.289 376.934 C 406.999 375.934 407.422 375.88 407.832 374.579 C 408.715 371.794 413.816 371.653 416.679 371.653 C 419.078 371.653 418.765 373.973 422.82 373.18 C 425.14 372.723 427.379 373.477 429.844 374.13 C 431.918 374.68 433.867 375.305 435.039 376.676 C 435.797 377.563 437.672 382.001 435.758 382.192 C 435.941 382.415 436.078 382.821 436.422 383.044 C 435.996 384.719 434.14 383.524 433.113 383.309 C 431.723 383.024 430.746 383.352 429.387 383.954 C 427.067 384.989 423.672 384.868 421.648 386.551 C 419.933 387.981 419.938 391.165 419.137 392.95 C 419.137 392.95 416.914 398.669 412.062 402.165 C 410.82 403.063 408.394 405.219 403.109 406.035 C 400.742 406.403 398.523 406.43 396.089 406.309 L 392.578 406.176 C 391.883 406.173 389.515 406.094 389.633 406.321 L 389.367 406.977 C 389.41 407.196 389.496 407.731 389.519 407.864 C 389.617 408.391 389.644 408.814 389.664 409.301 C 389.699 410.301 389.582 411.344 389.633 412.356 C 389.738 414.45 390.515 416.364 390.613 418.477 C 390.723 420.833 391.887 423.321 393.012 425.247 C 393.442 425.977 394.09 426.059 394.375 426.962 C 394.707 427.992 394.395 429.091 394.555 430.192 C 395.187 434.458 396.41 438.922 398.34 442.774 C 398.352 442.806 398.366 442.838 398.383 442.868 C 400.758 442.473 403.137 441.618 406.223 441.161 C 411.875 440.325 419.742 440.755 424.793 440.281 C 437.574 439.083 444.512 445.524 455.996 442.883 L 455.996 348.13 C 455.992 339.223 448.773 332 439.867 332 L 439.867 332.001 Z M 392.101 407.696 C 392.086 407.501 392.094 407.528 392.121 407.649 L 392.101 407.696 Z M 392.101 407.696" fill="url(#ocaml-original-c)" transform="matrix(0.9999999999999999, 0, 0, 0.9999999999999999, 0, 0)"/>
  <path d="M 357.508 422.505 C 358.398 420.559 358.914 418.34 359.652 416.348 C 360.363 414.442 361.469 411.738 363.352 410.778 C 363.125 410.508 359.414 410.388 358.422 410.286 L 355.222 409.833 L 349.058 408.563 C 347.859 408.274 343.871 406.86 343.004 406.462 C 340.972 405.524 339.621 402.982 338.035 403.242 C 337.019 403.407 336.023 403.755 335.402 404.778 C 334.887 405.614 334.711 407.048 334.355 408.008 C 333.941 409.126 333.226 410.168 332.601 411.231 C 331.449 413.181 329.379 414.946 328.488 416.848 C 328.308 417.238 328.148 417.676 328 418.133 L 328 439.868 L 331.347 440.59 C 340.34 442.993 342.535 443.196 351.355 442.184 L 352.183 442.074 C 352.855 440.669 353.379 435.887 353.816 434.407 C 354.156 433.27 354.625 432.367 354.804 431.207 C 354.972 430.107 354.789 429.059 354.691 428.055 C 354.449 425.551 356.519 424.657 357.511 422.505 L 357.508 422.505 Z M 357.508 422.505" fill="url(#ocaml-original-d)" transform="matrix(0.9999999999999999, 0, 0, 0.9999999999999999, 0, 0)"/>
</svg>
