<?xml version="1.0" encoding="utf-8"?>
<svg viewBox="50.4801 311.1491 128 128" xmlns="http://www.w3.org/2000/svg">
  <ellipse style="stroke: rgb(0, 0, 0); stroke-width: 0px; fill: rgb(255, 255, 255);" cx="-188.631" cy="234.843" rx="63.305" ry="63.357" transform="matrix(1, 0, 0, 1, 303.0330810546875, 140.07705688476562)"/>
  <path d="M -218.291 229.869 C -219.14 230.047 -219.77 230.359 -220.177 230.813 C -220.587 231.261 -220.617 231.974 -220.268 232.94 C -219.729 234.343 -219.307 235.937 -219.004 237.704 C -218.694 239.476 -218.545 241.167 -218.545 242.778 L -217.947 242.778 C -217.557 241.055 -217.334 239.056 -217.288 236.789 C -217.239 234.521 -217.575 232.214 -218.291 229.869 Z M -188.553 190.391 C -163.944 190.391 -143.873 210.463 -143.873 235.072 C -143.873 259.681 -163.944 279.752 -188.553 279.752 C -213.162 279.752 -233.234 259.681 -233.234 235.072 C -233.234 210.463 -213.162 190.391 -188.553 190.391 Z M -188.553 192.208 C -174.068 192.208 -161.224 199.458 -153.458 210.513 L -154.826 210.297 L -157.702 210.04 L -159.939 210.359 L -162.174 211.383 L -164.859 213.3 L -166.776 214.833 L -168.373 216.877 L -169.204 218.796 L -171.25 220.009 L -173.166 220.713 L -174.317 221.416 L -176.874 223.652 L -178.726 226.016 C -185.615 239.595 -180.747 220.659 -181.011 213.932 C -179.814 208.489 -180.677 209.008 -183.839 204.226 L -187.163 201.478 L -189.935 200.84 L -192.138 201.378 L -195.086 202.065 L -195.587 203.822 L -197.871 205.248 L -201.64 205.739 L -203.5 205.861 L -205.893 206.106 L -207.604 206.538 L -210.345 210 L -209.528 211.392 L -208.695 211.46 L -208.912 212.012 L -207.677 214.545 C -204.769 214.476 -204.022 214.406 -201.113 214.336 C -199.144 214.854 -197.682 217.149 -197.66 218.64 C -196.83 219.818 -198.161 222.817 -200.599 226.951 C -203.878 232.512 -202.666 237.912 -202.147 242.446 C -201.83 244.168 -201.513 244.814 -201.019 246.183 L -209.818 246.183 C -210.521 245.489 -212.548 243.91 -216.583 243.679 C -216.689 243.673 -216.793 243.668 -216.896 243.662 C -216.97 243.603 -217.042 243.538 -217.109 243.471 C -217.109 243.107 -217.059 242.791 -216.964 242.527 C -216.591 240.511 -216.474 238.352 -216.611 236.067 C -216.75 233.778 -217.013 231.676 -217.403 229.761 C -216.474 229.964 -215.965 230.246 -215.889 230.603 C -215.807 230.967 -215.703 231.526 -215.567 232.286 C -214.932 231.402 -214.588 230.673 -214.538 230.096 C -214.493 229.521 -214.887 229.094 -215.726 228.819 C -215.381 228.156 -214.56 227.929 -213.263 228.139 C -211.968 228.342 -210.974 229.25 -210.28 230.854 C -210.28 230.315 -210.471 229.566 -210.848 228.619 C -211.225 227.671 -211.79 227.199 -212.552 227.199 C -212.44 227.199 -212.299 227.16 -212.13 227.082 C -211.959 226.999 -211.591 226.974 -211.024 226.999 C -212.433 225.913 -213.535 225.64 -214.324 226.183 C -215.118 226.729 -215.798 226.999 -216.364 226.999 C -215.948 225.468 -215.249 224.594 -214.265 224.37 C -213.283 224.147 -212.684 224.673 -212.461 225.953 C -212.362 225.739 -212.345 225.362 -212.407 224.828 C -212.47 224.293 -212.632 223.881 -212.897 223.587 C -213.618 222.844 -214.438 222.898 -215.363 223.745 C -216.288 224.598 -216.869 225.319 -217.109 225.913 C -216.782 224.602 -216.433 223.708 -216.065 223.242 C -215.699 222.77 -215.344 222.508 -214.995 222.454 C -214.651 222.393 -214.324 222.439 -214.021 222.588 C -213.718 222.742 -213.46 222.775 -213.246 222.699 C -214.642 222.058 -215.679 221.813 -216.359 221.958 C -217.035 222.103 -217.507 222.402 -217.765 222.857 C -218.029 223.31 -218.155 223.794 -218.15 224.317 C -218.146 224.839 -218.165 225.154 -218.196 225.258 C -219.365 224.226 -220.599 223.736 -221.895 223.794 C -223.192 223.849 -224.249 225.046 -225.066 227.385 C -224.58 226.941 -224.121 226.348 -223.692 225.589 C -223.262 224.839 -222.304 224.927 -220.816 225.858 C -221.015 225.967 -221.325 226.153 -221.737 226.415 C -222.151 226.683 -222.354 227.318 -222.354 228.329 C -222.88 228.16 -223.3 228.184 -223.623 228.401 C -223.946 228.619 -224.182 228.86 -224.32 229.126 C -224.597 228.977 -224.95 228.832 -225.381 228.695 C -225.816 228.555 -226.257 228.633 -226.696 228.927 C -226.947 229.15 -227.122 229.499 -227.222 229.984 C -227.326 230.465 -227.25 230.839 -227.006 231.103 C -227.155 231.398 -227.387 231.664 -227.695 231.909 C -228.002 232.149 -228.121 232.79 -228.039 233.828 C -227.872 233.455 -227.499 232.944 -226.919 232.286 C -226.339 231.634 -225.821 231.303 -225.368 231.303 C -225.368 231.676 -225.381 232.1 -225.405 232.572 C -225.427 233.048 -225.301 233.479 -225.024 233.869 C -225.024 233.406 -224.961 232.961 -224.834 232.539 C -224.701 232.115 -224.552 231.716 -224.375 231.343 C -224.303 231.343 -223.991 231.398 -223.432 231.502 C -222.875 231.61 -222.482 231.824 -222.25 232.141 C -223.216 232.29 -223.772 232.708 -223.93 233.397 C -224.087 234.081 -224.186 234.64 -224.227 235.06 C -224.227 235.188 -224.136 235.106 -223.954 234.824 C -223.772 234.54 -223.536 234.235 -223.237 233.914 C -222.943 233.592 -222.611 233.343 -222.25 233.169 C -221.886 232.999 -221.525 233.085 -221.161 233.429 C -220.92 233.67 -220.634 234.23 -220.31 235.116 C -219.982 236 -219.721 236.992 -219.524 238.086 C -219.331 239.176 -219.262 240.255 -219.32 241.327 C -219.376 242.317 -219.627 243.105 -220.073 243.688 C -224.534 244.003 -225.977 245.509 -226.175 246.183 L -229.949 246.183 C -230.905 242.637 -231.417 238.913 -231.417 235.072 C -231.417 211.463 -212.162 192.208 -188.553 192.208 Z M -148.662 219.403 C -148.473 219.884 -148.294 220.37 -148.121 220.859 C -148.117 220.943 -148.114 221.023 -148.114 221.096 C -148.114 221.479 -148.114 222.501 -148.435 222.694 C -148.754 222.885 -149.265 224.1 -149.651 224.1 C -150.033 224.1 -150.672 224.548 -151.055 225.122 C -151.439 225.698 -151.694 227.104 -151.694 227.104 L -152.396 228.254 L -153.293 228.509 L -154.187 230.619 L -154.25 233.046 L -154.571 243.591 L -153.421 242.441 L -152.972 240.013 C -152.827 240.134 -152.682 240.338 -152.539 240.561 L -152.558 240.849 C -152.558 240.849 -152.751 244.554 -152.751 244.937 C -152.751 245.32 -153.325 247.239 -153.325 247.239 L -153.646 249.028 L -152.24 249.028 C -152.24 249.028 -151.537 248.134 -151.346 247.685 C -151.153 247.239 -151.218 245.002 -151.218 245.002 C -151.218 245.002 -150.885 242.713 -150.698 241.446 C -150.566 241.395 -150.48 241.355 -150.48 241.355 L -148.946 243.079 C -148.946 243.079 -149.776 244.487 -149.585 244.998 C -149.392 245.509 -148.563 246.977 -148.563 246.977 C -148.563 246.977 -150.096 247.809 -149.585 248.32 C -149.3 248.605 -148.646 249 -148.124 249.293 C -149.203 252.343 -150.617 255.238 -152.324 257.931 L -159.577 257.931 C -159.523 257.84 -159.491 257.779 -159.491 257.779 L -158.852 257.139 C -158.852 257.139 -157.637 256.308 -156.935 256.116 C -156.232 255.925 -155.144 255.222 -155.144 255.222 L -153.739 254.199 L -153.739 253.24 L -152.461 252.666 L -152.078 251.9 L -153.548 250.429 C -153.548 250.429 -153.867 250.109 -154.442 250.237 C -155.016 250.364 -156.552 250.877 -156.552 250.877 L -157.319 251.451 L -158.531 251.835 L -160.385 252.218 L -161.217 251.707 L -162.812 250.877 L -164.093 250.622 L -164.539 252.218 L -164.221 253.689 L -164.028 255.094 L -164.731 256.308 L -165.561 257.651 L -165.37 259.313 L -165.433 261.612 L -165.817 264.04 L -166.009 266.214 L -166.199 268.323 L -166.199 270.559 L -166.243 271.645 C -167.602 272.478 -169.01 273.235 -170.462 273.915 L -177.841 273.915 C -178.004 271.492 -178.173 268.708 -178.201 265.922 L -173.82 265.922 L -172.64 272.586 L -170.418 273.287 L -168.181 267.492 L -167.352 260.781 L -168.502 259.952 L -167.798 257.331 L -168.63 255.35 L -169.972 254.776 L -169.714 253.56 L -170.547 253.879 L -170.418 251.835 L -171.313 252.857 L -172.079 251.516 L -173.039 251.005 L -172.846 247.809 C -173.188 246.403 -173.528 244.998 -173.87 243.591 C -174.189 243.528 -174.509 243.463 -174.828 243.4 L -175.275 245.764 L -175.85 246.659 L -177.13 244.487 L -178.407 244.422 L -176.307 247.485 L -177.646 251.573 L -178.349 251.956 L -181.662 251.128 L -182.144 252.762 L -183.614 251.741 L -184.777 249.976 L -185.353 250.87 L -187.142 250.87 L -187.716 252.341 L -189.608 251.441 L -191.157 251.232 C -193.715 250.784 -198.589 247.687 -199.453 244.985 C -199.572 244.599 -199.688 243.906 -199.798 243.244 C -199.884 242.729 -199.966 242.233 -200.043 241.916 C -200.811 238.772 -201.151 236.209 -200.239 232.319 C -198.432 225.443 -195.846 222.075 -195.298 219.503 C -195.197 219.027 -191.442 217.191 -191.498 216.752 C -192.634 216.968 -194.207 217.95 -195.342 217.581 L -191.947 215.445 C -193.757 215.889 -193.595 216.123 -195.405 215.983 L -190.793 213.776 L -197.121 214.724 C -197.124 214.67 -198.623 213.809 -201.739 213.098 L -206.729 213.464 L -207.124 211.539 L -205.405 210.684 L -207.661 210.727 L -208.527 209.416 L -207.104 207.654 L -203.341 207.078 L -198.09 206.972 L -197.003 207.741 C -195.478 207.177 -194.803 207.757 -194.038 208.713 C -193.832 209.761 -195.395 207.652 -196.14 208.51 L -195.926 210.219 C -193.917 210.029 -192.009 210.406 -191.141 208.96 C -190.561 207.473 -191.173 206.213 -192.979 205.181 L -193.506 206.467 L -195.166 207.004 L -195.639 205.531 L -192.204 203.373 L -190.038 203.178 L -187.281 203.926 L -184.913 206.162 C -183.937 207.03 -189.188 208.341 -184.045 211.114 L -187.686 213.09 C -188.255 213.398 -183.378 212.694 -184.304 215.808 C -183.615 217.342 -186.666 215.972 -190.437 219.854 C -189.163 221.6 -185.723 218.231 -190.046 222.08 L -184.116 219.972 L -184.099 220.765 C -185.261 221.09 -188.239 222.347 -190.517 222.956 C -188.652 223.471 -185.47 222.947 -184.136 221.976 L -184.299 225.267 L -186.095 227.332 L -187.821 227.778 L -186.862 229.314 L -187.182 230.592 L -188.653 231.486 L -186.503 231.678 L -187.505 232.727 L -190.568 233.451 L -187.232 233.371 C -185.991 234.523 -188.768 234.671 -190.755 235.125 C -188.447 235.391 -186.418 235.545 -186.335 234.92 L -186.114 235.28 C -184.634 237.145 -188.194 236.568 -190.105 237.155 C -187.236 237.722 -185.152 237.827 -184.796 236.916 C -184.217 237.952 -184.221 237.768 -184.189 237.975 C -184.092 238.596 -186.896 239.505 -188.977 240.639 C -189.773 241.074 -183.711 240.778 -182.203 238.461 C -181.83 237.888 -185.469 241.5 -181.202 238.799 C -180.876 238.593 -180.91 239.459 -180.603 238.99 C -180.369 239.204 -180.75 239.993 -180.516 238.542 C -180.09 241.799 -178.804 242.481 -177.13 241.994 C -176.874 241.739 -176.618 241.483 -176.361 241.227 C -177.17 239.651 -177.981 238.075 -178.79 236.498 C -177.772 237.702 -177.017 238.384 -178.086 235.411 C -177.086 236.242 -176.086 237.072 -175.083 237.903 C -174.828 237.691 -174.572 237.477 -174.317 237.264 C -175.109 236.119 -175.904 234.974 -176.697 233.828 C -176.822 232.645 -176.426 232.091 -175.51 232.158 C -174.955 232.424 -174.399 232.692 -173.842 232.959 C -173.604 232.977 -173.363 232.994 -173.126 233.009 C -173.899 232.186 -175.737 230.307 -175.24 227.998 L -170.51 223.334 L -167.67 225.506 L -167.287 225.761 L -166.838 226.783 L -165.817 227.743 L -164.604 229.085 L -160.45 230.107 L -159.874 230.17 L -160.322 228.83 L -159.746 227.615 L -158.341 226.72 C -158.341 226.72 -160.13 226.72 -160.45 226.783 C -160.769 226.848 -163.772 226.911 -163.772 226.911 L -165.178 226.848 L -165.817 225.889 L -164.859 226.272 L -163.837 226.272 L -163.389 225.698 L -163.326 224.548 L -164.476 223.717 L -163.965 223.589 L -162.557 224.611 L -162.046 224.037 L -162.557 223.333 L -163.965 221.479 L -165.305 218.413 L -165.37 218.092 L -162.622 216.559 L -161.408 215.6 L -159.809 215.217 L -158.403 214.129 L -157.447 214.067 L -156.167 215.344 L -154.442 216.877 L -153.293 218.348 L -152.078 219.819 L -151.184 220.841 L -150.735 219.435 L -149.968 219.881 L -149.651 218.669 L -148.882 219.753 L -148.662 219.403 Z M -152.733 258.563 C -154.329 260.986 -156.162 263.241 -158.202 265.29 L -164.103 265.29 L -163.9 264.681 L -163.326 262.189 L -163.388 260.27 L -162.557 259.313 L -161.217 258.609 C -161.217 258.609 -160.64 258.737 -160.322 258.737 C -160.236 258.737 -160.135 258.666 -160.034 258.563 L -152.733 258.563 Z M -158.846 265.922 C -160.799 267.803 -162.93 269.501 -165.209 270.989 L -164.731 267.171 L -164.314 265.922 L -158.846 265.922 Z M -171.866 274.545 C -176.999 276.728 -182.639 277.936 -188.553 277.936 C -194.467 277.936 -200.107 276.727 -205.241 274.545 L -183.61 274.545 L -182.24 276.632 L -177.721 275.682 C -177.746 275.315 -177.771 274.936 -177.798 274.545 L -171.866 274.545 Z M -206.645 273.915 C -210.952 271.898 -214.873 269.185 -218.26 265.922 L -185.921 265.922 C -185.958 267.286 -186.159 268.683 -186.522 270.112 L -184.024 273.915 L -206.645 273.915 Z M -218.904 265.29 C -220.945 263.241 -222.777 260.986 -224.373 258.563 L -187.447 258.563 C -186.45 260.708 -185.939 262.95 -185.916 265.29 L -218.904 265.29 Z M -224.783 257.931 C -225.48 256.831 -226.13 255.699 -226.727 254.535 L -191.445 254.535 C -189.748 255.737 -188.536 256.869 -187.811 257.931 L -224.783 257.931 Z M -227.041 253.905 C -227.513 252.946 -227.95 251.966 -228.351 250.969 L -198.35 250.969 C -198.283 251.046 -198.216 251.122 -198.148 251.196 C -196.338 252.134 -193.693 253.037 -192.371 253.905 L -227.041 253.905 Z M -228.597 250.338 C -228.795 249.824 -228.985 249.305 -229.163 248.781 L -199.858 248.781 C -199.547 249.345 -199.214 249.864 -198.858 250.338 L -228.597 250.338 Z M -229.368 248.151 C -229.448 247.904 -229.525 247.655 -229.6 247.406 L -200.532 247.406 C -200.421 247.662 -200.306 247.91 -200.186 248.151 L -229.368 248.151 Z M -188.553 171.072 C -153.303 171.072 -124.553 199.822 -124.553 235.072 C -124.553 270.322 -153.303 299.072 -188.553 299.072 C -223.803 299.072 -252.553 270.322 -252.553 235.072 C -252.553 199.822 -223.803 171.072 -188.553 171.072 Z M -188.553 175.416 C -155.695 175.416 -128.897 202.214 -128.897 235.072 C -128.897 267.93 -155.695 294.728 -188.553 294.728 C -221.411 294.728 -248.209 267.93 -248.209 235.072 C -248.209 202.214 -221.411 175.416 -188.553 175.416 Z M -220.961 228.128 C -220.862 228.128 -220.68 228.044 -220.409 227.862 C -220.141 227.684 -219.779 227.695 -219.324 227.887 C -219.38 227.253 -219.66 226.883 -220.169 226.774 C -220.68 226.669 -220.944 227.118 -220.961 228.128 Z M -224.866 229.91 C -225.024 229.743 -225.269 229.652 -225.604 229.64 C -225.936 229.624 -226.185 229.665 -226.352 229.761 C -226.434 229.898 -226.508 230.084 -226.579 230.328 C -226.652 230.573 -226.661 230.763 -226.607 230.904 C -226.438 230.64 -226.202 230.51 -225.895 230.514 C -225.592 230.519 -225.351 230.531 -225.169 230.56 C -225.12 230.465 -225.074 230.341 -225.037 230.2 C -225 230.059 -224.946 229.96 -224.866 229.91 Z M -223.246 229.67 C -223.092 229.724 -222.875 229.839 -222.59 230.014 C -222.3 230.191 -222.055 230.391 -221.849 230.614 C -221.905 230.491 -222.001 230.224 -222.135 229.824 C -222.272 229.421 -222.375 229.154 -222.449 229.018 C -222.553 229.018 -222.703 229.085 -222.889 229.217 C -223.075 229.354 -223.192 229.503 -223.246 229.67 Z M -220.867 229.367 C -220.92 229.47 -220.94 229.81 -220.925 230.382 C -220.916 230.954 -220.845 231.27 -220.721 231.343 C -220.667 230.954 -220.559 230.419 -220.396 229.743 C -220.232 229.068 -219.911 228.728 -219.434 228.728 C -219.883 228.782 -220.182 228.844 -220.323 228.927 C -220.463 229.005 -220.645 229.154 -220.867 229.367 Z M -173.931 265.29 L -175.122 258.563 L -177.817 258.563 C -178.109 260.648 -178.21 262.96 -178.205 265.29 L -173.931 265.29 Z M -175.234 257.931 L -175.275 257.695 L -176.149 257.931 L -175.234 257.931 Z M -229.152 276.843 L -229.687 271.741 L -234.579 270.477 L -230.033 268.49 L -230.458 263.863 L -227.324 267.306 L -222.677 265.277 L -225.072 269.725 L -221.839 273.53 L -226.694 272.48 L -229.152 276.843 Z M -148.537 277.372 L -151 272.784 L -156.079 273.476 L -152.576 269.866 L -154.75 265.684 L -150.484 267.713 L -146.902 264.021 L -147.441 269.119 L -142.943 271.449 L -147.904 272.328 L -148.537 277.372 Z M -178.743 290.534 L -180.424 282.324 L -178.665 281.999 L -177.272 288.814 L -172.9 288.007 L -172.614 289.401 L -178.743 290.534 Z M -187.717 291.251 L -188.183 282.829 L -184.417 282.64 C -183.47 282.595 -182.777 282.636 -182.34 282.766 C -181.905 282.896 -181.545 283.147 -181.266 283.52 C -180.987 283.897 -180.835 284.332 -180.807 284.83 C -180.772 285.46 -180.939 285.993 -181.305 286.424 C -181.673 286.855 -182.245 287.143 -183.015 287.288 C -182.618 287.485 -182.284 287.704 -182.017 287.949 C -181.753 288.193 -181.389 288.631 -180.926 289.265 L -179.752 290.855 L -181.892 290.96 L -183.286 289.192 C -183.782 288.559 -184.118 288.163 -184.295 288 C -184.476 287.84 -184.662 287.732 -184.854 287.677 C -185.047 287.624 -185.348 287.606 -185.762 287.628 L -186.121 287.645 L -185.928 291.162 L -187.717 291.251 Z M -186.195 286.3 L -184.874 286.235 C -184.016 286.192 -183.481 286.132 -183.271 286.054 C -183.062 285.974 -182.901 285.846 -182.788 285.67 C -182.678 285.497 -182.628 285.283 -182.643 285.032 C -182.658 284.745 -182.751 284.522 -182.92 284.355 C -183.087 284.189 -183.319 284.092 -183.611 284.059 C -183.758 284.048 -184.194 284.059 -184.919 284.095 L -186.314 284.165 L -186.195 286.3 Z M -195.987 290.766 L -195.37 282.355 L -188.811 282.79 L -188.915 284.215 L -193.688 283.897 L -193.826 285.761 L -189.383 286.056 L -189.487 287.472 L -193.93 287.177 L -194.098 289.467 L -189.155 289.796 L -189.259 291.214 L -195.987 290.766 Z M -204.026 289.014 L -202.032 280.798 L -199.232 281.413 C -198.173 281.645 -197.49 281.839 -197.187 281.993 C -196.722 282.222 -196.371 282.582 -196.137 283.07 C -195.903 283.557 -195.866 284.126 -196.024 284.778 C -196.148 285.283 -196.347 285.687 -196.624 285.986 C -196.899 286.29 -197.209 286.506 -197.556 286.636 C -197.898 286.768 -198.231 286.831 -198.552 286.826 C -198.989 286.814 -199.602 286.722 -200.393 286.547 L -201.529 286.298 L -202.283 289.398 L -204.026 289.014 Z M -200.624 282.571 L -201.191 284.901 L -200.237 285.112 C -199.548 285.263 -199.078 285.321 -198.824 285.287 C -198.574 285.25 -198.359 285.157 -198.181 285.003 C -198.006 284.847 -197.89 284.651 -197.828 284.406 C -197.757 284.109 -197.789 283.84 -197.928 283.604 C -198.062 283.373 -198.268 283.197 -198.539 283.089 C -198.74 283.005 -199.154 282.894 -199.782 282.757 L -200.624 282.571 Z M -141.132 241.457 L -132.804 242.776 L -133.709 248.487 L -135.119 248.264 L -134.481 244.236 L -136.451 243.923 L -137.003 247.399 L -138.412 247.177 L -137.861 243.701 L -141.399 243.14 L -141.132 241.457 Z M -136.574 231.922 C -135.714 231.922 -134.993 232.05 -134.411 232.308 C -133.982 232.5 -133.597 232.76 -133.254 233.094 C -132.915 233.425 -132.661 233.789 -132.496 234.183 C -132.273 234.709 -132.163 235.314 -132.163 236 C -132.163 237.243 -132.546 238.237 -133.319 238.984 C -134.088 239.729 -135.16 240.101 -136.533 240.101 C -137.895 240.101 -138.961 239.731 -139.729 238.991 C -140.496 238.25 -140.881 237.261 -140.881 236.023 C -140.881 234.769 -140.498 233.771 -139.736 233.033 C -138.969 232.293 -137.915 231.922 -136.574 231.922 Z M -136.518 233.676 C -137.471 233.676 -138.196 233.897 -138.688 234.337 C -139.181 234.778 -139.427 235.339 -139.427 236.017 C -139.427 236.695 -139.184 237.254 -138.692 237.689 C -138.203 238.122 -137.471 238.341 -136.494 238.341 C -135.528 238.341 -134.807 238.129 -134.331 237.706 C -133.854 237.282 -133.618 236.719 -133.618 236.017 C -133.618 235.316 -133.859 234.75 -134.339 234.319 C -134.82 233.893 -135.545 233.676 -136.518 233.676 Z M -138.573 225.182 L -138.681 226.909 C -139.636 226.887 -140.401 226.644 -140.977 226.181 C -141.553 225.72 -141.951 225.048 -142.17 224.169 C -142.441 223.084 -142.291 222.097 -141.724 221.213 C -141.157 220.329 -140.227 219.725 -138.941 219.405 C -137.579 219.065 -136.436 219.153 -135.505 219.669 C -134.577 220.185 -133.969 221.014 -133.683 222.162 C -133.434 223.16 -133.528 224.048 -133.963 224.821 C -134.218 225.28 -134.653 225.685 -135.262 226.034 L -136.061 224.497 C -135.658 224.295 -135.375 224.009 -135.205 223.638 C -135.037 223.271 -135.007 222.868 -135.117 222.428 C -135.267 221.823 -135.608 221.384 -136.137 221.116 C -136.665 220.847 -137.419 220.834 -138.393 221.077 C -139.429 221.334 -140.119 221.703 -140.464 222.186 C -140.812 222.666 -140.909 223.205 -140.763 223.801 C -140.652 224.241 -140.418 224.583 -140.061 224.829 C -139.704 225.077 -139.207 225.193 -138.573 225.182 Z M -144.171 217.661 L -136.407 214.365 L -135.742 215.933 L -143.507 219.227 L -144.171 217.661 Z M -147.253 211.238 L -139.868 207.312 L -139.069 208.815 L -145.199 212.074 L -143.212 215.812 L -144.468 216.479 L -147.253 211.238 Z M -145.128 199.36 L -143.194 202.121 C -142.811 202.667 -142.549 203.092 -142.406 203.394 C -142.263 203.693 -142.192 203.999 -142.187 204.313 C -142.183 204.627 -142.252 204.936 -142.395 205.246 C -142.534 205.555 -142.755 205.816 -143.054 206.024 C -143.376 206.251 -143.733 206.372 -144.126 206.387 C -144.52 206.402 -144.888 206.307 -145.23 206.104 C -145.059 206.61 -145.042 207.08 -145.178 207.511 C -145.315 207.947 -145.583 208.302 -145.982 208.581 C -146.296 208.8 -146.653 208.943 -147.051 209.004 C -147.45 209.066 -147.83 209.031 -148.182 208.903 C -148.535 208.776 -148.864 208.54 -149.165 208.198 C -149.351 207.984 -149.761 207.433 -150.391 206.548 L -152.037 204.196 L -145.128 199.36 Z M -145.301 201.56 L -146.897 202.68 L -146.259 203.593 C -145.878 204.138 -145.633 204.469 -145.524 204.59 C -145.332 204.809 -145.118 204.939 -144.884 204.979 C -144.652 205.021 -144.424 204.962 -144.201 204.804 C -143.987 204.655 -143.855 204.475 -143.803 204.265 C -143.753 204.053 -143.795 203.821 -143.931 203.57 C -144.011 203.42 -144.282 203.018 -144.741 202.361 L -145.301 201.56 Z M -148.048 203.483 L -149.895 204.776 L -148.991 206.067 C -148.639 206.57 -148.403 206.879 -148.279 206.994 C -148.097 207.176 -147.885 207.28 -147.649 207.308 C -147.413 207.336 -147.171 207.265 -146.926 207.093 C -146.718 206.949 -146.579 206.775 -146.504 206.574 C -146.43 206.37 -146.425 206.151 -146.493 205.915 C -146.56 205.679 -146.815 205.244 -147.259 204.61 L -148.048 203.483 Z M -152.429 192.127 L -151.184 193.288 L -154.297 196.629 C -154.792 197.157 -155.097 197.517 -155.213 197.703 C -155.395 198.004 -155.456 198.327 -155.4 198.665 C -155.341 199.004 -155.138 199.338 -154.792 199.661 C -154.438 199.993 -154.103 200.168 -153.789 200.191 C -153.475 200.215 -153.202 200.137 -152.97 199.96 C -152.736 199.784 -152.394 199.451 -151.937 198.964 L -148.756 195.551 L -147.511 196.713 L -150.531 199.951 C -151.223 200.692 -151.744 201.186 -152.097 201.428 C -152.448 201.67 -152.812 201.814 -153.191 201.855 C -153.566 201.896 -153.966 201.838 -154.384 201.682 C -154.804 201.523 -155.257 201.216 -155.746 200.761 C -156.333 200.211 -156.719 199.728 -156.895 199.308 C -157.072 198.888 -157.147 198.487 -157.121 198.106 C -157.096 197.723 -157 197.387 -156.833 197.097 C -156.586 196.666 -156.141 196.108 -155.495 195.416 L -152.429 192.127 Z M -164.64 193.827 L -160.048 186.754 L -157.756 188.242 C -156.89 188.805 -156.346 189.21 -156.13 189.45 C -155.791 189.82 -155.601 190.271 -155.558 190.804 C -155.516 191.339 -155.677 191.886 -156.043 192.447 C -156.325 192.882 -156.641 193.196 -156.992 193.389 C -157.342 193.582 -157.691 193.686 -158.047 193.697 C -158.397 193.708 -158.716 193.658 -159.001 193.55 C -159.387 193.396 -159.902 193.11 -160.55 192.69 L -161.481 192.086 L -163.213 194.754 L -164.64 193.827 Z M -159.398 188.878 L -160.699 190.884 L -159.919 191.39 C -159.356 191.756 -158.956 191.965 -158.717 192.014 C -158.482 192.062 -158.258 192.044 -158.047 191.956 C -157.836 191.867 -157.663 191.72 -157.527 191.512 C -157.36 191.254 -157.299 190.992 -157.34 190.725 C -157.383 190.464 -157.507 190.232 -157.71 190.041 C -157.86 189.896 -158.193 189.66 -158.706 189.327 L -159.398 188.878 Z M -171.726 190.409 L -168.296 182.707 L -162.585 185.249 L -163.166 186.553 L -167.321 184.701 L -168.084 186.41 L -164.216 188.131 L -164.792 189.429 L -168.659 187.707 L -169.593 189.803 L -165.29 191.72 L -165.868 193.017 L -171.726 190.409 Z M -179.952 187.943 L -177.628 179.835 L -174.182 180.824 C -173.316 181.071 -172.707 181.327 -172.356 181.585 C -172.006 181.842 -171.765 182.191 -171.635 182.631 C -171.507 183.073 -171.512 183.529 -171.648 184.01 C -171.824 184.617 -172.146 185.069 -172.617 185.363 C -173.086 185.656 -173.695 185.754 -174.435 185.652 C -174.141 185.962 -173.914 186.271 -173.754 186.585 C -173.595 186.897 -173.411 187.423 -173.201 188.166 L -172.664 190.033 L -174.62 189.472 L -175.297 187.366 C -175.538 186.615 -175.711 186.137 -175.82 185.929 C -175.925 185.721 -176.059 185.561 -176.214 185.451 C -176.372 185.34 -176.636 185.232 -177.013 185.123 L -177.344 185.028 L -178.314 188.412 L -179.952 187.943 Z M -176.972 183.733 L -175.763 184.079 C -174.977 184.305 -174.477 184.413 -174.262 184.404 C -174.048 184.393 -173.863 184.322 -173.705 184.193 C -173.55 184.062 -173.435 183.876 -173.366 183.631 C -173.286 183.358 -173.296 183.118 -173.394 182.908 C -173.491 182.697 -173.666 182.533 -173.92 182.412 C -174.048 182.358 -174.442 182.234 -175.106 182.044 L -176.383 181.678 L -176.972 183.733 Z M -188.44 184.37 L -188.44 182.947 L -184.77 182.947 L -184.77 186.306 C -185.127 186.652 -185.644 186.955 -186.32 187.219 C -186.998 187.482 -187.685 187.612 -188.378 187.612 C -189.259 187.612 -190.027 187.428 -190.684 187.059 C -191.34 186.687 -191.832 186.158 -192.163 185.47 C -192.492 184.781 -192.657 184.032 -192.657 183.225 C -192.657 182.347 -192.473 181.565 -192.107 180.881 C -191.737 180.201 -191.199 179.677 -190.487 179.313 C -189.948 179.032 -189.274 178.893 -188.469 178.893 C -187.423 178.893 -186.604 179.112 -186.017 179.551 C -185.428 179.991 -185.049 180.598 -184.88 181.373 L -186.572 181.688 C -186.691 181.275 -186.914 180.946 -187.243 180.707 C -187.57 180.467 -187.98 180.348 -188.469 180.348 C -189.213 180.348 -189.804 180.584 -190.244 181.054 C -190.684 181.529 -190.903 182.225 -190.903 183.155 C -190.903 184.156 -190.68 184.907 -190.233 185.407 C -189.792 185.907 -189.207 186.156 -188.488 186.156 C -188.131 186.156 -187.773 186.087 -187.414 185.946 C -187.056 185.808 -186.747 185.637 -186.489 185.44 L -186.489 184.37 L -188.44 184.37 Z M -200.746 188.746 L -202.064 180.418 L -200.427 180.158 L -196.137 185.179 L -197.019 179.618 L -195.455 179.369 L -194.136 187.698 L -195.825 187.967 L -200.044 183.067 L -199.182 188.497 L -200.746 188.746 Z M -203.879 189.944 L -206.344 181.879 L -204.715 181.381 L -202.25 189.446 L -203.879 189.944 Z M -212.875 193.727 L -216.303 186.022 L -213.975 184.987 L -210.24 189.619 L -211.197 183.748 L -208.864 182.711 L -205.434 190.413 L -206.879 191.057 L -209.579 184.993 L -208.407 191.737 L -209.906 192.404 L -214.131 187.02 L -211.431 193.084 L -212.875 193.727 Z M -220.79 199.678 L -225.981 193.032 L -223.974 191.464 L -219.227 195.054 L -221.576 189.591 L -219.564 188.019 L -214.372 194.665 L -215.617 195.637 L -219.703 190.405 L -216.938 196.668 L -218.228 197.677 L -223.632 193.474 L -219.545 198.706 L -220.79 199.678 Z M -221.574 200.166 L -222.789 201.565 L -224.719 200.865 L -226.93 203.408 L -225.94 205.19 L -227.125 206.554 L -231.335 198.541 L -230.155 197.183 L -221.574 200.166 Z M -226.148 200.346 L -229.273 199.169 L -227.657 202.082 L -226.148 200.346 Z M -231.354 212.925 L -238.175 207.968 L -236.069 205.066 C -235.54 204.339 -235.094 203.853 -234.73 203.613 C -234.369 203.371 -233.959 203.264 -233.5 203.293 C -233.043 203.323 -232.614 203.483 -232.209 203.778 C -231.699 204.148 -231.385 204.607 -231.27 205.151 C -231.154 205.692 -231.272 206.296 -231.62 206.957 C -231.229 206.786 -230.859 206.677 -230.509 206.637 C -230.161 206.593 -229.604 206.599 -228.833 206.656 L -226.897 206.79 L -228.095 208.436 L -230.304 208.354 C -231.09 208.323 -231.599 208.321 -231.833 208.352 C -232.067 208.382 -232.259 208.451 -232.417 208.559 C -232.576 208.668 -232.768 208.88 -232.998 209.198 L -233.201 209.476 L -230.354 211.546 L -231.354 212.925 Z M -234.29 208.685 L -233.55 207.668 C -233.071 207.005 -232.799 206.574 -232.734 206.368 C -232.671 206.165 -232.673 205.965 -232.743 205.772 C -232.811 205.58 -232.946 205.408 -233.152 205.259 C -233.381 205.092 -233.611 205.021 -233.843 205.041 C -234.072 205.06 -234.286 205.168 -234.488 205.365 C -234.583 205.465 -234.834 205.795 -235.239 206.355 L -236.021 207.427 L -234.29 208.685 Z M -236.123 216.726 L -237.431 216.172 L -235.997 212.793 L -232.905 214.106 C -232.725 214.572 -232.647 215.165 -232.671 215.89 C -232.694 216.615 -232.84 217.298 -233.113 217.937 C -233.457 218.748 -233.927 219.385 -234.522 219.845 C -235.12 220.304 -235.8 220.551 -236.563 220.585 C -237.324 220.618 -238.078 220.477 -238.823 220.163 C -239.631 219.819 -240.278 219.344 -240.764 218.738 C -241.246 218.134 -241.52 217.431 -241.576 216.637 C -241.624 216.031 -241.489 215.355 -241.173 214.615 C -240.766 213.651 -240.242 212.984 -239.61 212.613 C -238.975 212.243 -238.269 212.132 -237.489 212.28 L -237.858 213.958 C -238.286 213.909 -238.676 213.986 -239.025 214.194 C -239.373 214.403 -239.642 214.731 -239.835 215.182 C -240.125 215.868 -240.14 216.505 -239.878 217.092 C -239.614 217.683 -239.055 218.157 -238.201 218.519 C -237.281 218.909 -236.501 219 -235.867 218.785 C -235.233 218.571 -234.776 218.134 -234.494 217.469 C -234.354 217.14 -234.28 216.784 -234.267 216.399 C -234.256 216.016 -234.293 215.665 -234.375 215.351 L -235.361 214.933 L -236.123 216.726 Z M -240.655 230.183 C -241.502 230.034 -242.19 229.782 -242.719 229.427 C -243.109 229.163 -243.442 228.84 -243.722 228.453 C -243.999 228.067 -244.186 227.667 -244.28 227.249 C -244.409 226.692 -244.413 226.077 -244.293 225.399 C -244.077 224.175 -243.525 223.264 -242.637 222.664 C -241.749 222.062 -240.627 221.882 -239.275 222.12 C -237.935 222.357 -236.95 222.906 -236.322 223.769 C -235.694 224.633 -235.486 225.672 -235.703 226.892 C -235.92 228.125 -236.469 229.042 -237.35 229.64 C -238.232 230.235 -239.334 230.415 -240.655 230.183 Z M -240.409 228.446 C -239.469 228.611 -238.715 228.518 -238.154 228.171 C -237.591 227.822 -237.253 227.313 -237.137 226.644 C -237.017 225.978 -237.16 225.386 -237.57 224.871 C -237.974 224.359 -238.659 224.017 -239.62 223.846 C -240.573 223.68 -241.318 223.764 -241.862 224.096 C -242.404 224.431 -242.734 224.944 -242.858 225.635 C -242.979 226.329 -242.838 226.926 -242.439 227.432 C -242.041 227.939 -241.365 228.277 -240.409 228.446 Z M -236.448 239.029 L -244.879 239.176 L -244.941 235.593 C -244.956 234.692 -244.891 234.038 -244.749 233.627 C -244.604 233.215 -244.341 232.881 -243.958 232.63 C -243.572 232.379 -243.133 232.25 -242.634 232.24 C -242.002 232.23 -241.476 232.408 -241.056 232.771 C -240.641 233.135 -240.369 233.687 -240.25 234.425 C -240.04 234.053 -239.811 233.743 -239.557 233.501 C -239.304 233.256 -238.856 232.927 -238.206 232.509 L -236.58 231.45 L -236.543 233.483 L -238.358 234.748 C -239.005 235.197 -239.412 235.502 -239.581 235.666 C -239.748 235.831 -239.861 236.003 -239.924 236.184 C -239.984 236.366 -240.01 236.652 -240.001 237.044 L -239.996 237.388 L -236.476 237.327 L -236.448 239.029 Z M -241.344 237.412 L -241.365 236.154 C -241.378 235.337 -241.422 234.826 -241.494 234.623 C -241.567 234.423 -241.689 234.265 -241.859 234.153 C -242.031 234.042 -242.241 233.986 -242.494 233.99 C -242.779 233.997 -243.005 234.077 -243.179 234.23 C -243.349 234.385 -243.456 234.601 -243.499 234.878 C -243.514 235.016 -243.516 235.43 -243.504 236.121 L -243.481 237.449 L -241.344 237.412 Z M -235.25 246.821 L -243.555 248.288 L -244.03 245.599 C -244.209 244.578 -244.283 243.905 -244.254 243.582 C -244.216 243.083 -244.014 242.635 -243.653 242.241 C -243.293 241.847 -242.782 241.592 -242.122 241.474 C -241.61 241.386 -241.166 241.403 -240.787 241.527 C -240.406 241.65 -240.092 241.836 -239.843 242.088 C -239.594 242.337 -239.412 242.605 -239.298 242.887 C -239.148 243.272 -239.005 243.846 -238.871 244.606 L -238.678 245.698 L -235.545 245.145 L -235.25 246.821 Z M -242.444 246.362 L -240.09 245.947 L -240.25 245.031 C -240.367 244.37 -240.488 243.935 -240.615 243.727 C -240.74 243.521 -240.907 243.369 -241.115 243.274 C -241.322 243.183 -241.548 243.155 -241.795 243.198 C -242.095 243.253 -242.33 243.385 -242.496 243.599 C -242.659 243.809 -242.743 244.056 -242.743 244.336 C -242.747 244.544 -242.693 244.948 -242.587 245.552 L -242.444 246.362 Z M -155.892 239.343 L -155.381 241.39 C -155.381 241.39 -155.956 242.986 -156.019 243.369 C -156.084 243.753 -156.147 245.288 -156.147 245.734 C -156.147 246.183 -156.212 248.42 -156.212 248.42 L -157.555 251.295 L -157.873 249.697 L -158.449 248.227 L -159.406 245.927 L -159.406 243.307 C -159.406 243.307 -159.534 241.964 -159.151 241.774 C -158.768 241.581 -158.066 241.07 -158.066 241.07 L -156.851 240.303 L -155.892 239.343 Z" fill="#1b1918" fill-rule="evenodd" transform="matrix(1, 0, 0, 1, 303.0330810546875, 140.07705688476562)"/>
</svg>
