<?xml version="1.0" encoding="utf-8"?>
<svg viewBox="92.253 125.767 128 98.7" xmlns="http://www.w3.org/2000/svg">
  <defs>
    <linearGradient id="gradientFill-1" x1="0" x2="1" y1="0" y2="1" gradientUnits="objectBoundingBox" spreadMethod="pad">
      <stop offset="0" stop-color="rgb(203,206,208)" stop-opacity="1"/>
      <stop offset="1" stop-color="rgb(132,131,139)" stop-opacity="1"/>
    </linearGradient>
    <linearGradient id="gradientFill-2" x1="0" x2="1" y1="0" y2="1" gradientUnits="objectBoundingBox" spreadMethod="pad">
      <stop offset="0" stop-color="rgb(39,109,195)" stop-opacity="1"/>
      <stop offset="1" stop-color="rgb(22,92,170)" stop-opacity="1"/>
    </linearGradient>
  </defs>
  <ellipse style="stroke: rgb(0, 0, 0); stroke-width: 0px; fill: rgb(255, 255, 255);" cx="164.743" cy="171.322" rx="51.32" ry="35.302"/>
  <path d="M 156.253 211.487 C 120.907 211.487 92.253 192.298 92.253 168.627 C 92.253 144.956 120.907 125.767 156.253 125.767 C 191.599 125.767 220.253 144.956 220.253 168.627 C 220.253 192.298 191.599 211.487 156.253 211.487 Z M 166.049 142.524 C 139.183 142.524 117.404 155.642 117.404 171.825 C 117.404 188.007 139.183 201.126 166.049 201.126 C 192.915 201.126 212.742 192.157 212.742 171.825 C 212.742 151.499 192.915 142.524 166.049 142.524 Z" fill="url(#gradientFill-1)" fill-rule="evenodd"/>
  <path d="M 189.722 192.151 C 189.722 192.151 193.595 193.32 195.846 194.459 C 196.627 194.854 197.978 195.642 198.952 196.678 C 199.907 197.691 200.372 198.719 200.372 198.719 L 215.638 224.456 L 190.964 224.467 L 179.426 202.801 C 179.426 202.801 177.064 198.742 175.61 197.565 C 174.397 196.583 173.88 196.234 172.681 196.234 C 171.846 196.234 166.818 196.234 166.818 196.234 L 166.823 224.451 L 144.99 224.461 L 144.99 152.381 L 188.834 152.381 C 188.834 152.381 208.804 152.741 208.804 171.739 C 208.804 190.737 189.722 192.151 189.722 192.151 Z M 180.225 168.016 L 167.007 168.007 L 167.001 180.264 L 180.225 180.259 C 180.225 180.259 186.349 180.24 186.349 174.025 C 186.349 167.684 180.225 168.016 180.225 168.016 Z" fill="url(#gradientFill-2)" fill-rule="evenodd"/>
</svg>
