<?xml version="1.0" encoding="utf-8"?>
<svg viewBox="139.3432 43.8532 127.8758 127.9995" xmlns="http://www.w3.org/2000/svg">
  <ellipse style="stroke: rgb(0, 0, 0); stroke-width: 0px; fill: rgb(255, 255, 255);" cx="203.282" cy="107.732" rx="57.423" ry="56.815"/>
  <path d="M 202.241 44.095 C 202.009 44.23 201.038 45.623 200.081 47.192 C 197.681 51.132 197.655 51.134 194.431 47.742 C 192.333 45.534 191.826 45.13 191.151 45.135 C 190.711 45.137 190.156 45.287 189.916 45.467 C 189.676 45.647 189 47.079 188.412 48.65 C 187.066 52.25 187.002 52.365 186.256 52.51 C 185.796 52.596 184.913 52.103 182.793 50.581 C 181.228 49.456 179.693 48.536 179.382 48.536 C 178.091 48.536 177.727 49.242 177.112 52.936 C 176.332 57.633 176.358 57.617 172.124 55.694 C 170.414 54.918 168.794 54.284 168.521 54.284 C 168.247 54.284 167.729 54.577 167.371 54.936 C 166.719 55.588 166.718 55.591 166.896 59.182 L 167.074 62.777 L 166.394 63.141 C 165.792 63.463 165.377 63.424 162.71 62.793 C 159.23 61.971 158.494 61.993 157.79 62.943 L 157.274 63.636 L 157.966 66.6 C 158.346 68.23 158.711 69.8 158.78 70.087 C 158.847 70.374 158.73 70.833 158.52 71.107 C 158.172 71.555 157.803 71.597 154.58 71.547 C 149.128 71.461 148.819 71.929 151.07 76.847 C 151.788 78.407 152.375 79.827 152.375 79.997 C 152.375 80.895 151.658 81.221 148.581 81.724 C 146.859 82.004 145.363 82.234 145.255 82.234 C 145.148 82.234 144.825 82.469 144.538 82.756 C 143.601 83.692 143.867 84.572 145.991 87.57 C 148.637 91.305 148.633 91.32 144.261 92.991 C 139.29 94.893 139.189 95.361 142.974 98.951 C 146.499 102.295 146.504 102.246 142.513 104.755 C 139.489 106.653 139.443 106.699 139.366 107.729 C 139.273 108.982 139.295 109.004 142.904 111.209 C 146.474 113.389 146.474 113.455 142.971 116.769 C 139.203 120.333 139.319 120.853 144.294 122.73 C 148.641 124.37 148.647 124.39 145.996 128.124 C 144.494 130.241 144.015 131.124 144.015 131.777 C 144.015 133 144.652 133.312 148.455 133.951 C 151.661 134.491 152.375 134.808 152.375 135.692 C 152.375 135.874 151.787 137.304 151.068 138.869 C 148.832 143.739 149.087 144.144 154.378 144.144 C 159.308 144.144 159.177 143.994 158.115 148.438 C 157.315 151.788 157.302 152.43 158.027 153.153 C 158.581 153.709 159.627 153.647 162.897 152.864 C 165.396 152.268 165.834 152.227 166.413 152.536 L 167.073 152.89 L 166.896 156.484 C 166.718 160.077 166.719 160.079 167.371 160.732 C 167.729 161.092 168.255 161.384 168.536 161.384 C 168.818 161.384 170.439 160.754 172.14 159.98 C 176.36 158.064 176.334 158.048 177.113 162.73 C 177.73 166.441 178.09 167.13 179.407 167.13 C 179.734 167.13 181.237 166.25 182.747 165.172 C 185.401 163.279 186.089 162.982 186.796 163.432 C 186.978 163.547 187.686 165.102 188.368 166.887 C 189.371 169.512 189.738 170.197 190.297 170.463 C 191.359 170.973 192.017 170.563 194.515 167.843 C 197.531 164.557 197.655 164.573 200.117 168.563 C 202.837 172.969 203.541 172.959 206.329 168.474 C 208.731 164.61 208.703 164.612 211.95 168.004 C 214.107 170.254 214.566 170.614 215.293 170.614 C 215.757 170.614 216.312 170.439 216.523 170.226 C 216.737 170.013 217.443 168.44 218.091 166.73 C 218.74 165.02 219.412 163.53 219.586 163.42 C 220.273 162.984 220.984 163.29 223.634 165.172 C 225.194 166.28 226.662 167.132 227.011 167.132 C 228.307 167.132 228.775 166.212 229.313 162.597 C 229.773 159.515 229.867 159.219 230.473 158.912 C 231.069 158.61 231.427 158.712 234.223 159.982 C 235.924 160.752 237.546 161.384 237.827 161.384 C 238.109 161.384 238.643 161.082 239.011 160.712 L 239.683 160.042 L 239.499 156.594 C 239.322 153.304 239.339 153.126 239.863 152.651 C 240.403 152.163 240.459 152.165 243.478 152.855 C 247.134 153.69 247.816 153.712 248.503 153.025 C 249.174 152.355 249.167 152.207 248.249 148.335 C 247.219 143.989 247.081 144.145 252.029 144.145 C 255.403 144.145 255.779 144.096 256.209 143.622 C 256.927 142.829 256.756 141.92 255.313 138.843 C 254.584 137.293 253.993 135.883 253.998 135.708 C 254.022 134.794 254.741 134.481 258.063 133.941 C 260.096 133.612 261.616 133.231 261.892 132.981 C 262.815 132.148 262.476 131.063 260.369 128.108 C 257.727 124.405 257.739 124.37 261.968 122.811 C 267.032 120.945 267.177 120.323 263.387 116.721 C 259.877 113.386 259.875 113.404 263.72 111.044 C 268.368 108.191 268.375 107.548 263.802 104.709 C 259.869 102.269 259.872 102.303 263.397 98.956 C 267.177 95.363 267.075 94.893 262.102 92.991 C 257.714 91.312 257.7 91.271 260.367 87.611 C 261.955 85.431 262.349 84.708 262.349 83.961 C 262.349 82.655 261.763 82.363 257.913 81.741 C 254.697 81.221 253.989 80.906 253.989 79.991 C 253.989 79.817 254.577 78.417 255.296 76.878 C 256.702 73.865 256.9 72.658 256.104 71.938 C 255.676 71.551 255.104 71.495 252.037 71.546 C 248.829 71.6 248.419 71.554 247.974 71.107 C 247.488 70.619 247.494 70.55 248.252 67.382 C 249.183 63.502 249.187 63.407 248.422 62.688 C 247.645 61.958 247.16 61.97 243.596 62.809 C 240.999 63.421 240.569 63.462 239.979 63.146 L 239.309 62.786 L 239.494 59.204 L 239.68 55.624 L 239.01 54.954 C 238.641 54.584 238.119 54.284 237.847 54.284 C 237.577 54.284 235.963 54.924 234.264 55.705 C 231.426 57.011 231.121 57.098 230.507 56.777 C 229.895 56.457 229.793 56.14 229.27 52.948 C 228.667 49.255 228.293 48.536 226.982 48.536 C 226.671 48.536 225.129 49.461 223.556 50.591 C 220.972 52.447 220.626 52.623 219.982 52.398 C 219.449 52.212 219.139 51.808 218.761 50.799 C 218.481 50.057 217.944 48.627 217.567 47.622 C 216.805 45.594 216.38 45.14 215.239 45.14 C 214.602 45.14 214.026 45.598 211.959 47.744 C 208.709 51.119 208.698 51.118 206.309 47.199 C 205.354 45.633 204.356 44.235 204.091 44.093 C 203.494 43.773 202.791 43.773 202.241 44.095 M 205.201 55.893 C 208.031 57.907 206.527 62.643 203.057 62.643 C 199.689 62.643 197.993 58.586 200.397 56.283 C 201.755 54.983 203.701 54.824 205.202 55.893 M 201.644 68.4 C 203.499 69.105 204.26 68.682 208.496 64.6 L 211.678 61.53 L 213.025 61.71 C 217.25 62.27 225.652 65.96 230.48 69.376 C 234.916 72.516 240.812 78.91 243.325 83.306 L 243.862 84.248 L 241.482 89.612 C 240.172 92.562 239.1 95.285 239.1 95.665 C 239.1 96.543 239.676 97.932 240.23 98.391 C 240.464 98.586 242.687 99.656 245.169 100.769 L 249.679 102.794 L 249.857 103.942 C 250.087 105.437 250.117 109.109 249.909 110.152 L 249.746 110.968 L 247.171 110.968 C 244.184 110.968 244.415 110.701 244.253 114.364 C 244.135 117.02 243.493 118.488 242.033 119.439 C 239.656 120.99 235.729 120.709 234.063 118.869 C 233.808 118.585 233.311 117.164 232.958 115.709 C 231.928 111.455 230.545 109.069 227.765 106.744 C 226.887 106.011 226.17 105.326 226.17 105.222 C 226.17 105.12 227.135 104.307 228.315 103.419 C 232.613 100.179 235.085 96.407 235.355 92.672 C 235.874 85.546 230.197 78.905 221.753 76.752 C 219.751 76.242 218.896 76.226 194.129 76.226 C 180.072 76.226 168.569 76.134 168.569 76.022 C 168.569 75.759 171.694 72.727 173.534 71.206 C 178.588 67.028 185.152 63.741 191.951 61.986 L 194.301 61.376 L 197.641 64.763 C 199.48 66.626 201.281 68.263 201.644 68.4 M 159.581 90.193 C 161.12 91.201 161.751 93.733 160.841 95.255 C 159.436 97.611 155.875 97.71 154.468 95.433 C 152.422 92.124 156.363 88.084 159.581 90.193 M 250.253 90.323 C 254.279 92.777 251.159 98.816 246.849 96.909 C 243.972 95.636 243.879 91.703 246.694 90.269 C 247.868 89.669 249.217 89.69 250.254 90.322 M 171.444 105.353 L 171.444 120.373 L 158.164 120.373 L 157.638 118.088 C 156.602 113.588 156.166 108.932 156.427 105.119 L 156.609 102.44 L 161.174 100.393 C 164.038 99.11 165.88 98.131 166.117 97.768 C 167.155 96.184 167.057 95.053 165.599 91.835 L 164.919 90.333 L 171.442 90.333 L 171.442 105.353 M 209.671 90.985 C 212.514 91.725 214.016 93.23 214.02 95.34 C 214.022 96.89 213.255 97.86 211.35 98.72 C 210.002 99.33 209.788 99.345 201.287 99.428 L 192.601 99.512 L 192.601 90.592 L 200.383 90.592 C 206.461 90.592 208.495 90.678 209.671 90.985 M 206.737 112.539 C 208.147 112.931 209.813 114.155 210.667 115.427 C 211.565 116.764 212.09 118.503 213.334 124.263 C 214.384 129.133 215.061 130.723 216.954 132.795 C 219.299 135.361 218.754 135.261 230.468 135.261 C 236.078 135.261 240.666 135.351 240.666 135.461 C 240.666 135.658 236.803 140.225 236.636 140.225 C 236.588 140.225 234.57 139.803 232.152 139.286 C 225.323 137.828 225.077 137.999 223.51 145.318 L 222.502 150.02 L 221.592 150.468 C 220.074 151.218 215.139 152.76 212.582 153.288 C 208.354 154.158 203.754 154.45 199.711 154.109 C 192.818 153.524 183.691 150.85 183.334 149.309 C 183.259 148.982 182.799 146.866 182.316 144.605 C 181.831 142.345 181.242 140.201 181.006 139.841 C 179.876 138.117 178.688 138.011 173.459 139.167 C 171.479 139.607 169.751 139.963 169.619 139.963 C 169.371 139.963 165.696 135.714 165.696 135.428 C 165.696 135.338 174.424 135.234 185.092 135.198 L 204.487 135.132 L 204.557 128.242 C 204.607 123.377 204.539 121.245 204.327 120.992 C 204.093 120.708 202.842 120.634 198.316 120.634 L 192.601 120.634 L 192.601 112.274 L 199.198 112.275 C 202.824 112.277 206.218 112.395 206.737 112.539 M 176.851 143.873 C 179.935 145.753 178.456 150.677 174.808 150.673 C 171.068 150.673 169.681 145.793 172.868 143.847 C 173.923 143.204 175.776 143.217 176.851 143.873 M 233.331 144.079 C 234.843 145.187 235.346 147.492 234.41 149.029 C 231.95 153.063 225.798 149.856 227.853 145.61 C 228.863 143.525 231.548 142.773 233.331 144.08"/>
</svg>
