<?xml version="1.0" encoding="utf-8"?>
<svg viewBox="81.1498 111.8089 127.555 127.555" xmlns="http://www.w3.org/2000/svg">
  <rect x="-20.755" y="43.5" width="94.874" height="55.965" style="stroke: rgb(0, 0, 0); stroke-width: 0px; fill: rgb(255, 255, 255);" transform="matrix(1, 0, 0, 1, 127.30679321289061, 131.28689575195312)"/>
  <path fill="#654ff0" d="M -46.157 -19.478 L -46.157 108.077 L 81.398 108.077 L 81.398 -19.478 L 32.214 -19.478 C 32.228 -19.251 32.25 -19.023 32.25 -18.792 C 32.25 -10.712 25.7 -4.166 17.62 -4.166 C 9.542 -4.166 2.995 -10.712 2.995 -18.792 C 2.995 -19.023 3.017 -19.251 3.026 -19.478 L -46.157 -19.478 Z M -16.562 49.268 L -8.117 49.268 L -2.335 80.006 L -2.228 80.006 L 4.74 49.268 L 12.648 49.268 L 18.913 80.387 L 19.019 80.387 L 25.616 49.268 L 33.9 49.268 L 23.135 94.424 L 14.74 94.424 L 8.527 63.686 L 8.42 63.686 L 1.72 94.424 L -6.837 94.424 L -16.562 49.268 Z M 43.432 49.268 L 56.766 49.268 L 70.05 94.424 L 61.28 94.424 L 58.401 84.373 L 43.21 84.373 L 40.998 94.423 L 32.498 94.423 L 43.432 49.268 Z M 48.515 60.4 L 44.831 76.97 L 56.304 76.97 L 52.068 60.4 L 48.515 60.4 Z" transform="matrix(1, 0, 0, 1, 127.30679321289061, 131.28689575195312)"/>
</svg>
